<svg width="890" height="1000" viewBox="0 0 890 1000" fill="none" xmlns="http://www.w3.org/2000/svg">
<path d="M82 220.5L40 278.5L16 368.5V516L29 711.5L64 761L176.5 846L298.5 913.5L438 966.5L567.5 928L811.5 777L858 711.5L870.5 583V448.5V358.5L842 257.5L733 171L567.5 75L438 31.5L237.5 119.5L82 220.5Z" fill="white" stroke="black"/>
<g clip-path="url(#clip0_1_113)">
<g clip-path="url(#clip1_1_113)">
<g clip-path="url(#clip2_1_113)">
<path d="M826.919 279.57C792.403 219.82 513.936 59.1389 445 59.1389C376.064 59.1389 97.7 219.82 63.0806 279.57C30.8833 335.181 30.8833 664.919 63.0806 720.531C97.7 780.181 376.064 940.861 445 940.861C513.936 940.861 792.4 780.181 826.919 720.431C859.117 664.82 859.117 335.181 826.919 279.57ZM860.225 260.292C820.056 190.853 528.367 20.5834 445 20.5834C361.633 20.5834 69.9444 190.853 29.775 260.292C-9.18334 327.511 -9.18334 672.489 29.775 739.708C69.9444 809.147 361.633 979.417 445 979.417C528.367 979.417 820.056 809.147 860.225 739.808C899.183 672.489 899.183 327.511 860.225 260.292ZM836.406 725.981C800.981 787.245 515.65 951.861 445 951.864C374.35 951.864 89.0194 787.147 53.5944 725.881C20.5917 668.856 20.5917 330.942 53.5944 273.917C89.0194 212.753 374.35 48.1362 445 48.1362C515.65 48.1362 800.981 212.853 836.406 274.02C869.408 331.045 869.408 668.958 836.406 725.981Z" fill="#3D9970"/>
<g clip-path="url(#clip3_1_113)">
<g clip-path="url(#clip4_1_113)">
<g clip-path="url(#clip5_1_113)">
<g clip-path="url(#clip6_1_113)">
<g clip-path="url(#clip7_1_113)">
<g clip-path="url(#clip8_1_113)">
<g clip-path="url(#clip9_1_113)">
<path d="M278.412 305.28C319.967 305.28 352.623 314.473 376.379 332.861C400.062 351.248 411.903 377.358 411.903 411.19V417.809H357.845V409.535C357.845 391.883 350.674 378.277 336.332 368.716C321.99 359.154 303.051 354.374 279.515 354.374C253.406 354.374 233.106 358.676 218.617 367.281C204.054 375.96 196.773 388.39 196.773 404.571C196.773 416.706 200.929 426.635 209.24 434.358C217.477 442.08 227.774 448.148 240.13 452.561C252.413 456.974 269.402 461.939 291.099 467.455C319.048 474.81 341.664 481.981 358.948 488.968C376.232 495.955 391.052 506.436 403.408 520.41C415.691 534.384 421.832 552.955 421.832 576.123C421.832 617.31 409.255 647.355 384.102 666.257C358.874 685.233 323.461 694.72 277.861 694.72C232.26 694.72 196.883 685.049 171.73 665.705C146.502 646.436 133.889 618.413 133.889 581.639L134.441 570.607H188.499L187.947 582.191C187.947 603.52 195.964 619.406 211.998 629.85C227.958 640.368 250.096 645.626 278.412 645.626C305.993 645.626 327.8 640.552 343.834 630.402C359.794 620.326 367.774 606.462 367.774 588.81C367.774 574.836 363.471 563.509 354.866 554.831C346.187 546.225 335.339 539.532 322.321 534.752C309.229 529.971 291.467 524.639 269.035 518.755C241.454 511.4 219.389 504.413 202.841 497.794C186.292 491.174 172.134 480.951 160.366 467.124C148.599 453.37 142.715 435.277 142.715 412.845C142.715 376.438 155.034 349.409 179.673 331.757C204.312 314.106 237.225 305.28 278.412 305.28ZM464.858 310.796H756.111V359.89H637.514V689.204H583.455V359.89H464.858V310.796Z" fill="white"/>
</g>
</g>
</g>
</g>
</g>
</g>
</g>
</g>
</g>
</g>
<defs>
<clipPath id="clip0_1_113">
<rect width="888.889" height="1000" fill="white" transform="translate(0.555542)"/>
</clipPath>
<clipPath id="clip1_1_113">
<rect width="888.889" height="1000" fill="white" transform="translate(0.555542)"/>
</clipPath>
<clipPath id="clip2_1_113">
<rect width="888.889" height="1000" fill="white" transform="translate(0.555542)"/>
</clipPath>
<clipPath id="clip3_1_113">
<rect width="622.222" height="389.44" fill="white" transform="translate(133.889 305.28)"/>
</clipPath>
<clipPath id="clip4_1_113">
<rect width="622.222" height="389.44" fill="white" transform="translate(133.889 305.28)"/>
</clipPath>
<clipPath id="clip5_1_113">
<rect width="622.222" height="389.44" fill="white" transform="translate(133.889 305.28)"/>
</clipPath>
<clipPath id="clip6_1_113">
<rect width="622.222" height="389.44" fill="white" transform="translate(133.889 305.28)"/>
</clipPath>
<clipPath id="clip7_1_113">
<rect width="622.222" height="389.44" fill="white" transform="translate(133.889 305.28)"/>
</clipPath>
<clipPath id="clip8_1_113">
<rect width="622.222" height="389.44" fill="white" transform="translate(133.889 305.28)"/>
</clipPath>
<clipPath id="clip9_1_113">
<rect width="622.222" height="389.44" fill="white" transform="translate(133.889 305.28)"/>
</clipPath>
</defs>
</svg>
